<mxfile host="app.diagrams.net" modified="2024-04-11T15:20:42.293Z" agent="Mozilla/5.0 (Windows NT 10.0; Win64; x64) AppleWebKit/537.36 (KHTML, like Gecko) Chrome/123.0.0.0 Safari/537.36" version="22.1.18" etag="V4GAxTXqsJI5G9NX7Vnn" type="github">
  <diagram name="PÃ¡gina-1" id="jYuXTAowKx0BsB3YbTte">
    <mxGraphModel>
      <root>
        <mxCell id="0" />
        <mxCell id="1" parent="0" />
      </root>
    </mxGraphModel>
  </diagram>
</mxfile>
